<svg xmlns="http://www.w3.org/2000/svg" xmlns:xlink="http://www.w3.org/1999/xlink" width="80" height="50" version="1.1" viewBox="0 0 80 50"><title>iDEAL_acceptancemark_80x50</title><g id="Page-1" fill="none" fill-rule="evenodd" stroke="none" stroke-width="1"><g id="iDEAL_acceptancemark_80x50"><rect id="Rectangle" width="79.25" height="49.25" x="0" y="0" fill="#FFF" fill-rule="nonzero"/><path id="Shape" fill="#BFBFBF" fill-rule="nonzero" d="M79.25,0.75 L79.25,49.25 L0.75,49.25 L0.75,0.75 L79.25,0.75 M80,0 L0,0 L0,50 L80,50 L80,0 Z"/><g id="iDeal" transform="translate(20.000000, 7.000000)"><g id="Group-10"><path id="Fill-6" fill="#FFF" d="M0.0278615385,0.140182609 L0.0278615385,34.972487 L20.5587846,34.972487 C34.1023231,34.972487 39.9747846,27.4701609 39.9747846,17.5216391 C39.9747846,7.61268261 34.1023231,0.140182609 20.5587846,0.140182609 L0.0278615385,0.140182609 Z"/><path id="Fill-8" fill="#000" d="M20.5643385,2.69557826 C35.2091077,2.69557826 37.3957231,11.9844261 37.3957231,17.5203609 C37.3957231,27.1251217 31.4186462,32.4145348 20.5643385,32.4145348 L2.61387692,32.4145348 L2.61387692,2.69557826 L20.5643385,2.69557826 Z M4.02695385,4.0929913 L4.02695385,31.016513 L20.5643385,31.016513 C30.5506462,31.016513 35.9829538,26.4153826 35.9829538,17.5203609 C35.9829538,8.37927391 30.0944923,4.0929913 20.5643385,4.0929913 L4.02695385,4.0929913 Z"/></g><polygon id="Fill-11" fill="#000" points="6.246 28.822 11.54 28.822 11.54 19.5 6.246 19.5"/><g id="Group-16" transform="translate(5.538462, 6.239130)"><path id="Fill-12" fill="#000" d="M6.64389231,8.56550435 C6.64389231,10.3629826 5.17127692,11.8203522 3.35389231,11.8203522 C1.53743077,11.8203522 0.0634307692,10.3629826 0.0634307692,8.56550435 C0.0634307692,6.76924348 1.53743077,5.31126522 3.35389231,5.31126522 C5.17127692,5.31126522 6.64389231,6.76924348 6.64389231,8.56550435"/><path id="Fill-14" fill="#C06" d="M17.0311385,10.0886283 L17.0311385,11.5968239 L13.2585231,11.5968239 L13.2585231,5.54197609 L16.9094462,5.54197609 L16.9094462,7.04956304 L14.7837538,7.04956304 L14.7837538,7.7515413 L16.7940615,7.7515413 L16.7940615,9.25882391 L14.7837538,9.25882391 L14.7837538,10.0886283 L17.0311385,10.0886283 Z M17.7634462,11.5988022 L19.6102154,5.53938913 L21.7797538,5.53938913 L23.6259077,11.5988022 L22.0383692,11.5988022 L21.6923692,10.4266065 L19.6976,10.4266065 L19.3505231,11.5988022 L17.7634462,11.5988022 Z M20.1432923,8.91947609 L21.2465231,8.91947609 L20.7420615,7.20706304 L20.6505231,7.20706304 L20.1432923,8.91947609 Z M24.3920615,5.5395413 L25.9169846,5.5395413 L25.9169846,10.0886283 L28.1768308,10.0886283 C27.5571385,1.83441087 20.9922154,0.0510847826 15.0271385,0.0510847826 L8.66729231,0.0510847826 L8.66729231,5.54273696 L9.60867692,5.54273696 C11.3249846,5.54273696 12.3912923,6.69393261 12.3912923,8.54573696 C12.3912923,10.4564326 11.3506769,11.5968239 9.60867692,11.5968239 L8.66729231,11.5968239 L8.66729231,22.5853022 L15.0271385,22.5853022 C24.7259077,22.5853022 28.1009846,18.1304109 28.2200615,11.5968239 L24.3920615,11.5968239 L24.3920615,5.5395413 Z M8.66606154,7.05062826 L8.66606154,10.0886283 L9.60867692,10.0886283 C10.2619077,10.0886283 10.8651385,9.90191087 10.8651385,8.54573696 C10.8651385,7.22060652 10.1937538,7.05062826 9.60867692,7.05062826 L8.66606154,7.05062826 Z"/></g></g></g></g></svg>