<svg xmlns="http://www.w3.org/2000/svg" xmlns:svg="http://www.w3.org/2000/svg" id="レイヤー_1" width="300" height="231.511" x="0" y="0" version="1.1" viewBox="0 0 300 231.511" xml:space="preserve"><metadata id="metadata6424"/><style id="style6319" type="text/css">.st0{fill:#fff}.st1{fill:url(#SVGID_1_)}.st2{fill:url(#SVGID_2_)}.st3{fill:url(#SVGID_3_)}.st4{fill:url(#SVGID_4_)}.st5{fill:url(#SVGID_5_)}</style><g id="g6321" transform="translate(-9.4000001,96.810998)"><g id="g6323" transform="matrix(1.8215159,0,0,1.8215159,-8.5437653,-109.83667)"><path style="fill:#fff" id="path6325" d="m 174,108.3 c 0,14 -11.4,25.4 -25.4,25.4 l -138.2,0 0,-100.6 c 0,-14 11.4,-25.4 25.4,-25.4 l 138.2,0 0,100.6 z" class="st0"/><g id="g6327"><linearGradient id="SVGID_1_" x1="117.386" x2="157.33" y1="81.399" y2="81.399" gradientTransform="matrix(1.125,0,0,1.125,-11.9755,-13.8615)" gradientUnits="userSpaceOnUse"><stop id="stop6330" offset="0" style="stop-color:#007940"/><stop id="stop6332" offset=".229" style="stop-color:#00873f"/><stop id="stop6334" offset=".743" style="stop-color:#40a737"/><stop id="stop6336" offset="1" style="stop-color:#5cb531"/></linearGradient><path style="fill:url(#SVGID_1_)" id="path6338" d="m 129,82.5 10.5,0 c 0.3,0 1,-0.1 1.3,-0.1 2,-0.4 3.7,-2.2 3.7,-4.7 0,-2.4 -1.7,-4.2 -3.7,-4.7 -0.3,-0.1 -0.9,-0.1 -1.3,-0.1 l -10.5,0 0,9.6 z" class="st1"/><linearGradient id="SVGID_2_" x1="117.384" x2="157.332" y1="75.171" y2="75.171" gradientTransform="matrix(1.125,0,0,1.125,-11.9755,-13.8615)" gradientUnits="userSpaceOnUse"><stop id="stop6341" offset="0" style="stop-color:#007940"/><stop id="stop6343" offset=".229" style="stop-color:#00873f"/><stop id="stop6345" offset=".743" style="stop-color:#40a737"/><stop id="stop6347" offset="1" style="stop-color:#5cb531"/></linearGradient><path style="fill:url(#SVGID_2_)" id="path6349" d="m 138.3,16.2 c -10,0 -18.2,8.1 -18.2,18.2 l 0,18.9 25.7,0 c 0.6,0 1.3,0 1.8,0.1 5.8,0.3 10.1,3.3 10.1,8.5 0,4.1 -2.9,7.6 -8.3,8.3 l 0,0.2 c 5.9,0.4 10.4,3.7 10.4,8.8 0,5.5 -5,9.1 -11.6,9.1 l -28.2,0 0,37 26.7,0 c 10,0 18.2,-8.1 18.2,-18.2 l 0,-90.9 -26.6,0 z" class="st2"/><linearGradient id="SVGID_3_" x1="117.385" x2="157.331" y1="68.399" y2="68.399" gradientTransform="matrix(1.125,0,0,1.125,-11.9755,-13.8615)" gradientUnits="userSpaceOnUse"><stop id="stop6352" offset="0" style="stop-color:#007940"/><stop id="stop6354" offset=".229" style="stop-color:#00873f"/><stop id="stop6356" offset=".743" style="stop-color:#40a737"/><stop id="stop6358" offset="1" style="stop-color:#5cb531"/></linearGradient><path style="fill:url(#SVGID_3_)" id="path6360" d="m 143.2,63.1 c 0,-2.4 -1.7,-4 -3.7,-4.3 -0.2,0 -0.7,-0.1 -1,-0.1 l -9.5,0 0,8.8 9.5,0 c 0.3,0 0.9,0 1,-0.1 2,-0.3 3.7,-1.9 3.7,-4.3 z" class="st3"/></g><linearGradient id="SVGID_4_" x1="27.959" x2="68.522" y1="75.171" y2="75.171" gradientTransform="matrix(1.125,0,0,1.125,-11.9755,-13.8615)" gradientUnits="userSpaceOnUse"><stop id="stop6363" offset="0" style="stop-color:#1f286f"/><stop id="stop6365" offset=".475" style="stop-color:#004e94"/><stop id="stop6367" offset=".826" style="stop-color:#0066b1"/><stop id="stop6369" offset="1" style="stop-color:#006fbc"/></linearGradient><path style="fill:url(#SVGID_4_)" id="path6371" d="m 37.7,16.2 c -10,0 -18.2,8.1 -18.2,18.2 l 0,44.9 c 5.1,2.5 10.4,4.1 15.7,4.1 6.3,0 9.7,-3.8 9.7,-9 l 0,-21.2 15.6,0 0,21.1 c 0,8.2 -5.1,14.9 -22.4,14.9 -10.5,0 -18.7,-2.3 -18.7,-2.3 l 0,38.3 26.7,0 c 10,0 18.2,-8.1 18.2,-18.2 l 0,-90.8 -26.6,0 z" class="st4"/><linearGradient id="SVGID_5_" x1="72.46" x2="111.855" y1="75.171" y2="75.171" gradientTransform="matrix(1.125,0,0,1.125,-11.9755,-13.8615)" gradientUnits="userSpaceOnUse"><stop id="stop6374" offset="0" style="stop-color:#6c2c2f"/><stop id="stop6376" offset=".173" style="stop-color:#882730"/><stop id="stop6378" offset=".573" style="stop-color:#be1833"/><stop id="stop6380" offset=".859" style="stop-color:#dc0436"/><stop id="stop6382" offset="1" style="stop-color:#e60039"/></linearGradient><path style="fill:url(#SVGID_5_)" id="path6384" d="m 88,16.2 c -10,0 -18.2,8.1 -18.2,18.2 l 0,23.8 c 4.6,-3.9 12.6,-6.4 25.5,-5.8 6.9,0.3 14.3,2.2 14.3,2.2 l 0,7.7 c -3.7,-1.9 -8.1,-3.6 -13.8,-4 -9.8,-0.7 -15.7,4.1 -15.7,12.5 0,8.5 5.9,13.3 15.7,12.5 5.7,-0.4 10.1,-2.2 13.8,-4 l 0,7.7 c 0,0 -7.3,1.9 -14.3,2.2 -12.9,0.6 -20.9,-1.9 -25.5,-5.8 l 0,42 26.7,0 c 10,0 18.2,-8.1 18.2,-18.2 l 0,-91 -26.7,0 z" class="st5"/></g></g></svg>